<?xml version="1.0" encoding="utf-8"?>
<!-- Generator: Adobe Illustrator 25.2.3, SVG Export Plug-In . SVG Version: 6.00 Build 0)  -->
<svg version="1.1" id="Layer_1" xmlns="http://www.w3.org/2000/svg" xmlns:xlink="http://www.w3.org/1999/xlink" x="0px" y="0px"
	 viewBox="0 0 2016 1728" style="enable-background:new 0 0 2016 1728;" xml:space="preserve">
<style type="text/css">
	.st0{fill:#44B8FF;}
</style>
<path class="st0" d="M1875.79,239.17H926.36c-35.91,0-65.12-29.21-65.12-65.12v-4.56c0-74.79-60.85-135.63-135.63-135.63H244.78
	c-74.79,0-135.63,60.85-135.63,135.63v196.19c0,19.47,15.78,35.25,35.25,35.25s35.25-15.78,35.25-35.25V169.49
	c0-35.91,29.21-65.12,65.12-65.12h480.83c35.91,0,65.12,29.21,65.12,65.12v4.56c0,74.79,60.85,135.63,135.63,135.63h949.42
	c35.91,0,65.12,29.21,65.12,65.12v1192.47c0,35.91-29.21,65.12-65.12,65.12h-32.76c10.03-20.64,14.32-43.97,12.2-68.19
	l-83.21-951.09c-6.4-73.09-71.12-132.56-144.28-132.56H131.84c-36.74,0-70.22,14.45-94.27,40.7c-24.15,26.35-35.67,61.15-32.44,98
	l83.21,951.08c6.4,73.09,71.12,132.56,144.28,132.56h1643.17c74.79,0,135.63-60.85,135.63-135.63V374.81
	C2011.42,300.01,1950.57,239.17,1875.79,239.17z M232.62,1632.39c-36.9,0-70.8-31.23-74.03-68.19L75.37,613.11
	c-1.48-16.92,3.56-32.63,14.18-44.22c10.53-11.5,25.55-17.83,42.29-17.83h1495.9c36.9,0,70.81,31.23,74.04,68.19l83.21,951.08
	c1.48,16.92-3.56,32.63-14.18,44.22c-10.53,11.5-25.55,17.83-42.29,17.83H232.62z"/>
</svg>
